External Loads File
version=1
nRows=61
nColumns=13
Range=5.000000e-03-10 seconds
endheader
time 	forceRightX 	forceRightY 	forceRightZ 	pointRightX 	pointRightY 	pointRightZ 	forceLeftX 	forceLeftY 	forceLeftZ 	pointLeftX 	pointLeftY 	pointLeftZ 		
2.505000 -126.873972 -29.934827 -0.000000 0.304167 0.510466 -0.116521 210.409094 782.945021 -0.000000 0.271462 0.155489 -0.360647
2.510000 -126.956178 -17.907078 -0.000000 0.310438 0.510742 -0.116571 197.989375 684.040200 -0.000000 0.265922 0.156462 -0.360473
2.515000 -127.201333 -5.322683 -0.000000 0.316653 0.510473 -0.116564 184.496937 589.376748 -0.000000 0.260287 0.157582 -0.360271
2.520000 -127.539610 7.975663 -0.000000 0.322846 0.509919 -0.116576 170.598262 499.839981 -0.000000 0.254384 0.158802 -0.358574
2.525000 -127.878711 21.857469 -0.000000 0.328899 0.509039 -0.116541 155.618969 416.439631 -0.000000 0.248863 0.160065 -0.358672
2.530000 -128.070179 36.764301 -0.000000 0.334892 0.507729 -0.116468 140.947559 339.149308 -0.000000 0.243351 0.161820 -0.358833
2.535000 -128.000866 52.891121 -0.000000 0.340761 0.505987 -0.116431 126.716076 268.100274 -0.000000 0.237854 0.163231 -0.358950
2.540000 -127.532012 70.755912 -0.000000 0.346401 0.503786 -0.116198 113.505667 203.058351 -0.000000 0.232242 0.165499 -0.358980
2.545000 -126.655973 90.814391 -0.000000 0.351893 0.501327 -0.116162 101.278748 143.986795 -0.000000 0.226568 0.168020 -0.358829
2.550000 -125.456254 113.680685 -0.000000 0.357284 0.498462 -0.116218 90.007798 90.852142 -0.000000 0.220928 0.170507 -0.358638
2.555000 -123.985856 140.161669 -0.000000 0.362580 0.495124 -0.115675 79.681631 43.567960 -0.000000 0.215547 0.173953 -0.358681
2.560000 -122.627858 170.790059 -0.000000 0.367416 0.491448 -0.115437 70.176809 2.200592 -0.000000 0.210039 0.177047 -0.358860
2.565000 -121.485349 206.270333 -0.000000 0.372012 0.487120 -0.115192 61.541909 -33.418454 -0.000000 0.204737 0.180569 -0.359020
2.570000 -120.715558 246.962035 -0.000000 0.376431 0.482345 -0.114918 53.740859 -63.362194 -0.000000 0.199442 0.184446 -0.359171
2.575000 -120.587449 292.788274 -0.000000 0.380626 0.477296 -0.114623 46.825858 -87.581953 -0.000000 0.194120 0.188680 -0.359115
2.580000 -120.955567 343.407956 -0.000000 0.384737 0.471518 -0.114422 40.848931 -106.022980 -0.000000 0.188898 0.193300 -0.358871
2.585000 -122.318915 397.812913 -0.000000 0.388729 0.465782 -0.114330 36.145880 -118.568250 -0.000000 0.183722 0.198172 -0.358643
2.590000 -124.900569 454.843050 -0.000000 0.392436 0.459740 -0.114275 32.971881 -125.313907 -0.000000 0.178772 0.203303 -0.358525
2.595000 -128.475384 513.344295 -0.000000 0.396066 0.453360 -0.114099 31.399199 -126.609092 -0.000000 0.173947 0.208629 -0.358372
2.600000 -133.532397 572.047511 -0.000000 0.399445 0.446858 -0.113965 31.606357 -123.020761 -0.000000 0.169322 0.214222 -0.358270
2.605000 -139.705908 630.138145 -0.000000 0.402648 0.439894 -0.113836 33.469517 -115.447154 -0.000000 0.164902 0.220021 -0.358221
2.610000 -147.116585 686.962575 -0.000000 0.405725 0.432574 -0.113572 36.917129 -104.988040 -0.000000 0.160875 0.226089 -0.358327
2.615000 -155.491130 742.057331 -0.000000 0.408576 0.425041 -0.113418 41.748720 -92.904010 -0.000000 0.157026 0.232436 -0.358282
2.620000 -165.968097 794.572535 -0.000000 0.411270 0.417899 -0.113628 47.818489 -80.368386 -0.000000 0.153667 0.239049 -0.359240
2.625000 -176.239850 844.389043 -0.000000 0.413695 0.410457 -0.113847 54.461909 -68.576553 -0.000000 0.150272 0.245883 -0.358486
2.630000 -185.680742 891.259204 -0.000000 0.416115 0.402466 -0.114141 61.200442 -58.327888 -0.000000 0.147509 0.253006 -0.359330
2.635000 -194.845671 934.958686 -0.000000 0.418365 0.394415 -0.114156 67.613113 -49.959980 -0.000000 0.144905 0.260322 -0.359534
2.640000 -203.614733 975.602179 -0.000000 0.420418 0.386059 -0.114140 73.281778 -43.484950 -0.000000 0.142794 0.267729 -0.359579
2.645000 -211.779516 1013.459512 -0.000000 0.422244 0.377605 -0.113964 77.934363 -38.660093 -0.000000 0.140994 0.275311 -0.359859
2.650000 -219.436846 1048.846415 -0.000000 0.423972 0.369034 -0.114016 81.496901 -35.107464 -0.000000 0.139573 0.282893 -0.359945
2.655000 -227.475004 1081.996611 -0.000000 0.425420 0.360617 -0.113986 84.085493 -32.418895 -0.000000 0.138587 0.290471 -0.359998
2.660000 -233.657292 1113.813639 -0.000000 0.426693 0.351997 -0.114279 85.823504 -30.561691 -0.000000 0.137994 0.298158 -0.360459
2.665000 -238.981871 1144.446174 -0.000000 0.427662 0.343453 -0.114309 86.951437 -29.411059 -0.000000 0.137722 0.305830 -0.360627
2.670000 -241.451512 1174.559097 -0.000000 0.428365 0.334762 -0.114295 87.571083 -29.184371 -0.000000 0.137837 0.313645 -0.361090
2.675000 -243.691808 1203.801670 -0.000000 0.428885 0.326428 -0.114125 87.812442 -29.785055 -0.000000 0.138335 0.321356 -0.361388
2.680000 -240.392712 1233.451221 -0.000000 0.428915 0.317616 -0.114220 87.517044 -31.671976 -0.000000 0.139054 0.329358 -0.360708
2.685000 -235.289308 1262.998287 -0.000000 0.428724 0.308990 -0.114405 86.685081 -34.583486 -0.000000 0.140318 0.337386 -0.361755
2.690000 -225.037842 1293.325171 -0.000000 0.428137 0.300037 -0.114409 85.112265 -38.681439 -0.000000 0.141920 0.345690 -0.362075
2.695000 -215.185871 1323.661488 -0.000000 0.427134 0.291484 -0.114416 82.884880 -43.427275 -0.000000 0.143868 0.353731 -0.362157
2.700000 -202.800407 1354.671826 -0.000000 0.425754 0.282909 -0.114444 79.906406 -48.757421 -0.000000 0.146244 0.361719 -0.362583
2.705000 -188.405001 1386.299749 -0.000000 0.423948 0.274547 -0.114510 76.227936 -54.332084 -0.000000 0.148924 0.369763 -0.362783
2.710000 -171.647114 1418.561881 -0.000000 0.421759 0.266318 -0.114536 71.908195 -59.893719 -0.000000 0.152067 0.377796 -0.362903
2.715000 -152.887856 1451.361703 -0.000000 0.419137 0.258208 -0.114519 67.059095 -65.224527 -0.000000 0.155577 0.385711 -0.363161
2.720000 -132.356115 1484.634153 -0.000000 0.416087 0.250196 -0.114578 61.785540 -70.203410 -0.000000 0.159377 0.393471 -0.363310
2.725000 -109.887163 1518.320989 -0.000000 0.412574 0.242384 -0.114400 56.140934 -74.792423 -0.000000 0.163514 0.401150 -0.363448
2.730000 -85.705200 1552.217063 -0.000000 0.408749 0.234667 -0.114663 50.159498 -78.975959 -0.000000 0.168041 0.408631 -0.363514
2.735000 -59.587482 1585.941411 -0.000000 0.404517 0.227160 -0.114617 43.835657 -82.766813 -0.000000 0.172894 0.416025 -0.363656
2.740000 -32.695543 1618.792104 -0.000000 0.399925 0.219876 -0.114586 37.243879 -86.128656 -0.000000 0.178051 0.423080 -0.363662
2.745000 -4.019451 1649.852948 -0.000000 0.395019 0.212625 -0.114557 30.369781 -89.054605 -0.000000 0.183527 0.429851 -0.363573
2.750000 26.321333 1677.864455 -0.000000 0.389776 0.205732 -0.114803 23.283211 -91.453584 -0.000000 0.189303 0.436615 -0.363489
2.755000 56.512701 1701.377927 -0.000000 0.384303 0.199200 -0.114696 16.172883 -93.158075 -0.000000 0.195289 0.443101 -0.363602
2.760000 88.015802 1718.709548 -0.000000 0.378399 0.193049 -0.114136 9.079354 -94.007565 -0.000000 0.201599 0.449400 -0.363525
2.765000 118.127921 1728.239954 -0.000000 0.372314 0.187282 -0.113970 2.295446 -93.823891 -0.000000 0.208073 0.455340 -0.363338
2.770000 146.837900 1728.276042 -0.000000 0.366043 0.181961 -0.113865 -4.040312 -92.518386 -0.000000 0.214704 0.461113 -0.363295
2.775000 174.083103 1717.192461 -0.000000 0.359487 0.177021 -0.113579 -9.846985 -90.055255 -0.000000 0.221443 0.466727 -0.363249
2.780000 198.957748 1693.626728 -0.000000 0.352858 0.172644 -0.113616 -15.096052 -86.437552 -0.000000 0.228642 0.471874 -0.363213
2.785000 220.527462 1656.526507 -0.000000 0.346184 0.168683 -0.113688 -19.840785 -81.696773 -0.000000 0.236048 0.476720 -0.363395
2.790000 236.533738 1605.445766 -0.000000 0.339364 0.165243 -0.113768 -24.112898 -75.910188 -0.000000 0.243246 0.481113 -0.363234
2.795000 246.523895 1540.269102 -0.000000 0.332512 0.162285 -0.113801 -28.048769 -69.180103 -0.000000 0.250206 0.485120 -0.363029
2.800000 253.559639 1460.896192 -0.000000 0.325627 0.159820 -0.113801 -31.940626 -61.595199 -0.000000 0.257607 0.488677 -0.362934
2.805000 256.066504 1368.549900 -0.000000 0.318626 0.157916 -0.113775 -35.879479 -53.375532 -0.000000 0.264987 0.491817 -0.363367
